<svg width="512" height="512" viewBox="0 0 512 512" xmlns="http://www.w3.org/2000/svg" role="img" aria-labelledby="pp-c1-title">
  <title id="pp-c1-title">PlanPal — Route Pals</title>
  <defs>
    <linearGradient id="pp-c1-bg" x1="0" y1="0" x2="512" y2="512" gradientUnits="userSpaceOnUse">
      <stop offset="0" stop-color="#3A2E26"/>
      <stop offset="1" stop-color="#1A1613"/>
    </linearGradient>
  </defs>
  <rect width="512" height="512" rx="112" fill="url(#pp-c1-bg)"/>
  <path d="M150 392 C 200 455, 330 420, 368 300" fill="none" stroke="#FAF8F4" stroke-width="14" stroke-linecap="round" stroke-dasharray="1 34"/>
  <g transform="translate(150,392) scale(8) translate(-12,-22)">
    <path d="M12 2C8.13 2 5 5.13 5 9c0 5.25 7 13 7 13s7-7.75 7-13c0-3.87-3.13-7-7-7z" fill="#3B6EF6"/>
    <circle cx="12" cy="9.2" r="3.1" fill="#1D1713"/>
  </g>
  <g transform="translate(368,300) scale(11) translate(-12,-22)">
    <path d="M12 2C8.13 2 5 5.13 5 9c0 5.25 7 13 7 13s7-7.75 7-13c0-3.87-3.13-7-7-7z" fill="#FAF8F4"/>
    <circle cx="12" cy="9.2" r="3.4" fill="#C15F3C"/>
  </g>
</svg>
